<svg xmlns="http://www.w3.org/2000/svg" xmlns:svg="http://www.w3.org/2000/svg" id="svg3471" width="64" height="64" version="1.1"><metadata id="metadata3476"/><g id="layer1"><g id="g19145" transform="matrix(4,0,0,4,1.9999997,2.3636364)" style="fill:#bebebe;fill-opacity:1;display:inline"><g style="fill:#bebebe;fill-opacity:1" id="g19155" transform="translate(-541.0002,-301)"><path id="path19157" d="m 543.0002,301 c -1.05237,0 -2,0.84508 -2,1.9375 l 0,11.125 c 0,1.09242 0.94763,1.9375 2,1.9375 l 11,0 c 1.05237,0 2,-0.84508 2,-1.9375 l 0,-11.125 c 0,-1.09242 -0.94763,-1.9375 -2,-1.9375 l -11,0 z m 0,5 3.03125,0 0,2 -3.03125,0 0,-2 z m 4.03125,0 2.96875,0 0,2 -2.96875,0 0,-2 z m 3.96875,0 3,0 0,2 -3,0 0,-2 z m -8,3 3.03125,0 0,2 -3.03125,0 0,-2 z m 4.03125,0 2.96875,0 0,2 -2.96875,0 0,-2 z m 3.96875,0 3,0 0,2 -3,0 0,-2 z m -8,3 3.03125,0 0,2 -3.03125,0 0,-2 z m 4.03125,0 2.96875,0 0,2 -2.96875,0 0,-2 z m 3.96875,0 3,0 0,2 -3,0 0,-2 z" style="font-size:medium;font-style:normal;font-variant:normal;font-weight:400;font-stretch:normal;text-indent:0;text-align:start;text-decoration:none;line-height:normal;letter-spacing:normal;word-spacing:normal;text-transform:none;direction:ltr;block-progression:tb;writing-mode:lr-tb;text-anchor:start;baseline-shift:baseline;color:#000;fill:#bebebe;fill-opacity:1;stroke:none;stroke-width:2;marker:none;visibility:visible;display:inline;overflow:visible;enable-background:new;font-family:Sans;-inkscape-font-specification:Sans"/><rect id="rect19159" width="3" height="2" x="551" y="309" style="opacity:.35;color:#000;fill:#bebebe;fill-opacity:1;stroke:none;stroke-width:1;marker:none;visibility:visible;display:inline;overflow:visible;enable-background:accumulate"/></g></g></g></svg>