<svg xmlns="http://www.w3.org/2000/svg" xmlns:svg="http://www.w3.org/2000/svg" id="svg14" width="48" height="48" version="1.1" viewBox="0 0 48 48"><g id="g824" transform="matrix(3.0886643,0,0,3.1428534,-2.2093152,-2.1428172)" style="stroke-width:.320961"><circle style="fill:#241f31;fill-opacity:.5;stroke-width:.320961;stroke-linecap:round;stroke-linejoin:round;stroke-opacity:.0901961;stop-color:#000" id="path1618" cx="8" cy="14" r="1"/><path id="path1019" d="M 5.75,1 C 4.4686242,1 3.6861548,1.670445 3.3398438,2.3203125 2.9935326,2.97018 3,3.6113281 3,3.6113281 V 11 H 1.5390625 a 0.5,0.5 0 0 0 -0.5,0.5 0.5,0.5 0 0 0 0.5,0.5 H 14.460938 a 0.5,0.5 0 0 0 0.5,-0.5 0.5,0.5 0 0 0 -0.5,-0.5 H 13 V 3.6113281 C 13,2.3781438 12.266425,1.6288714 11.587891,1.3105469 10.909357,0.99222236 10.25,1 10.25,1 Z m 0,1 h 4.5 c 0,0 0.465646,0.00734 0.912109,0.2167969 C 11.608573,2.4262488 12,2.7334067 12,3.6113281 V 11 H 4 V 3.6113281 c 0,0 0.00647,-0.4146272 0.2226562,-0.8203125 C 4.4388439,2.3853303 4.781381,2 5.75,2 Z" style="color:#000;fill:#241f31;fill-opacity:.5;stroke-width:.320961;stroke-linecap:round;stroke-linejoin:round;-inkscape-stroke:none"/></g></svg>