<?xml version="1.0" encoding="UTF-8" standalone="no"?>
<svg
   height="48"
   viewBox="0 0 48 48"
   width="48"
   version="1.1"
   id="svg14"
   sodipodi:docname="no-notifications.svg"
   inkscape:version="1.1.2 (0a00cf5339, 2022-02-04)"
   xmlns:inkscape="http://www.inkscape.org/namespaces/inkscape"
   xmlns:sodipodi="http://sodipodi.sourceforge.net/DTD/sodipodi-0.dtd"
   xmlns="http://www.w3.org/2000/svg"
   xmlns:svg="http://www.w3.org/2000/svg">
  <sodipodi:namedview
     id="namedview7"
     pagecolor="#ffffff"
     bordercolor="#666666"
     borderopacity="1.0"
     inkscape:pageshadow="2"
     inkscape:pageopacity="0.0"
     inkscape:pagecheckerboard="0"
     showgrid="false"
     inkscape:zoom="41"
     inkscape:cx="8"
     inkscape:cy="8"
     inkscape:current-layer="svg14" />
  <defs
     id="defs18" />
  <g
     id="g824"
     transform="matrix(3.0886643,0,0,3.1428534,-2.2093152,-2.1428172)"
     style="stroke-width:0.320961;fill:#ffffff">
    <circle
       style="fill:#ffffff;fill-opacity:0.5;stroke-width:0.320961;stroke-linecap:round;stroke-linejoin:round;stroke-opacity:0.0901961;stop-color:#000000"
       id="path1618"
       cx="8"
       cy="14"
       r="1" />
    <path
       id="path1019"
       style="color:#000000;fill:#ffffff;fill-opacity:0.5;stroke-width:0.320961;stroke-linecap:round;stroke-linejoin:round;-inkscape-stroke:none"
       d="M 5.75,1 C 4.4686242,1 3.6861548,1.670445 3.3398438,2.3203125 2.9935326,2.97018 3,3.6113281 3,3.6113281 V 11 H 1.5390625 a 0.5,0.5 0 0 0 -0.5,0.5 0.5,0.5 0 0 0 0.5,0.5 H 14.460938 a 0.5,0.5 0 0 0 0.5,-0.5 0.5,0.5 0 0 0 -0.5,-0.5 H 13 V 3.6113281 C 13,2.3781438 12.266425,1.6288714 11.587891,1.3105469 10.909357,0.99222236 10.25,1 10.25,1 Z m 0,1 h 4.5 c 0,0 0.465646,0.00734 0.912109,0.2167969 C 11.608573,2.4262488 12,2.7334067 12,3.6113281 V 11 H 4 V 3.6113281 c 0,0 0.00647,-0.4146272 0.2226562,-0.8203125 C 4.4388439,2.3853303 4.781381,2 5.75,2 Z" />
  </g>
</svg>
