<?xml version="1.0" encoding="UTF-8" standalone="no"?>
<svg
   width="46"
   height="24"
   version="1.1"
   id="svg20"
   sodipodi:docname="toggle-off-dark.svg"
   inkscape:version="1.1.2 (0a00cf5339, 2022-02-04)"
   xmlns:inkscape="http://www.inkscape.org/namespaces/inkscape"
   xmlns:sodipodi="http://sodipodi.sourceforge.net/DTD/sodipodi-0.dtd"
   xmlns="http://www.w3.org/2000/svg"
   xmlns:svg="http://www.w3.org/2000/svg">
  <defs
     id="defs24" />
  <sodipodi:namedview
     id="namedview22"
     pagecolor="#ffffff"
     bordercolor="#666666"
     borderopacity="1.0"
     inkscape:pageshadow="2"
     inkscape:pageopacity="0.0"
     inkscape:pagecheckerboard="0"
     showgrid="true"
     inkscape:zoom="11.146372"
     inkscape:cx="-16.776759"
     inkscape:cy="18.032773"
     inkscape:window-width="1920"
     inkscape:window-height="1011"
     inkscape:window-x="0"
     inkscape:window-y="32"
     inkscape:window-maximized="1"
     inkscape:current-layer="g18">
    <inkscape:grid
       type="xygrid"
       id="grid859" />
  </sodipodi:namedview>
  <g
     transform="translate(0,-291.18)"
     id="g18">
    <rect
       style="fill:#474747;fill-opacity:1;stroke:none;stroke-width:1;marker:none"
       width="46"
       height="24"
       x="0"
       y="291.17999"
       rx="11"
       ry="11.000004"
       fill="#e1dedb"
       stroke="#cdc7c2"
       stroke-linecap="round"
       stroke-linejoin="round"
       id="rect2" />
    <path
       style="color:#000000;fill:#808080;stroke-width:1;stroke-linecap:round;stroke-linejoin:round;-inkscape-stroke:none"
       d="m 12,292.27058 c -6.0464265,0 -11,4.95357 -11,10.99999 0,6.04644 4.9535735,11.00001 11,11.00001 6.046426,0 11,-4.95357 11,-11.00001 0,-6.04642 -4.953574,-10.99999 -11,-10.99999 z m 0,5.49999 c 3.094564,0 5.5,2.40544 5.5,5.5 0,3.09457 -2.405436,5.50001 -5.5,5.50001 -3.0945643,0 -5.5,-2.40544 -5.5,-5.50001 0,-3.09456 2.4054357,-5.5 5.5,-5.5 z"
       id="rect4" />
    <g
       transform="matrix(0.97148,0,0,1,1658.914,-2552.91)"
       stroke-width="1.015"
       stroke-linecap="round"
       stroke-linejoin="round"
       id="g10">
      <rect
         ry="13.17"
         rx="13.556"
         y="1234.681"
         x="-1242.7321"
         height="26"
         width="49.409"
         style="marker:none"
         fill="#e1dedb"
         stroke="#cdc7c2"
         id="rect6" />
      <rect
         style="marker:none"
         width="26.763"
         height="26"
         x="-1242.7321"
         y="1234.769"
         rx="13.511"
         ry="13.126"
         fill="#f8f7f7"
         stroke="#aa9f98"
         id="rect8" />
    </g>
    <g
       transform="matrix(0.97148,0,0,1,1658.914,-2512.91)"
       stroke-width="1.015"
       stroke="#2b73cc"
       id="g16">
      <rect
         style="marker:none"
         width="49.409"
         height="26"
         x="-1242.7321"
         y="1234.681"
         rx="13.556"
         ry="13.17"
         fill="#3081e3"
         id="rect12" />
      <rect
         ry="13.126"
         rx="13.511"
         y="1234.769"
         x="-1220.0861"
         height="26"
         width="26.763"
         style="marker:none"
         fill="#f8f7f7"
         stroke-linecap="round"
         stroke-linejoin="round"
         id="rect14" />
    </g>
  </g>
</svg>
