<?xml version="1.0" encoding="UTF-8" standalone="no"?>
<svg
   width="46"
   height="22"
   version="1.1"
   id="svg20"
   sodipodi:docname="toggle-off-dark.svg"
   inkscape:version="1.1.2 (0a00cf5339, 2022-02-04)"
   xmlns:inkscape="http://www.inkscape.org/namespaces/inkscape"
   xmlns:sodipodi="http://sodipodi.sourceforge.net/DTD/sodipodi-0.dtd"
   xmlns="http://www.w3.org/2000/svg"
   xmlns:svg="http://www.w3.org/2000/svg">
  <defs
     id="defs24" />
  <sodipodi:namedview
     id="namedview22"
     pagecolor="#ffffff"
     bordercolor="#666666"
     borderopacity="1.0"
     inkscape:pageshadow="2"
     inkscape:pageopacity="0.0"
     inkscape:pagecheckerboard="0"
     showgrid="true"
     inkscape:zoom="11.146372"
     inkscape:cx="-16.776759"
     inkscape:cy="18.032773"
     inkscape:window-width="1920"
     inkscape:window-height="1011"
     inkscape:window-x="0"
     inkscape:window-y="32"
     inkscape:window-maximized="1"
     inkscape:current-layer="g18">
    <inkscape:grid
       type="xygrid"
       id="grid859" />
  </sodipodi:namedview>
  <g
     transform="translate(0 -291.18)"
     id="g18">
    <rect
       style="stroke:none;marker:none;fill:#111111;fill-opacity:1"
       width="46"
       height="22.000008"
       x="0"
       y="291.17999"
       rx="11"
       ry="11.000004"
       fill="#e1dedb"
       stroke="#cdc7c2"
       stroke-linecap="round"
       stroke-linejoin="round"
       id="rect2" />
    <path
       style="color:#000000;fill:#888888;stroke-linecap:round;stroke-linejoin:round;-inkscape-stroke:none"
       d="m 11,292.17969 c -5.4967514,0 -10,4.50325 -10,10 0,5.49675 4.5032486,10 10,10 5.496751,0 10,-4.50325 10,-10 0,-5.49675 -4.503249,-10 -10,-10 z m 0,5 c 2.81324,0 5,2.18676 5,5 0,2.81324 -2.18676,5 -5,5 -2.8132403,0 -5,-2.18676 -5,-5 0,-2.81324 2.1867597,-5 5,-5 z"
       id="rect4" />
    <g
       transform="matrix(.97148 0 0 1 1658.914 -2552.91)"
       stroke-width="1.015"
       stroke-linecap="round"
       stroke-linejoin="round"
       id="g10">
      <rect
         ry="13.17"
         rx="13.556"
         y="1234.681"
         x="-1242.732"
         height="26"
         width="49.409"
         style="marker:none"
         fill="#e1dedb"
         stroke="#cdc7c2"
         id="rect6" />
      <rect
         style="marker:none"
         width="26.763"
         height="26"
         x="-1242.732"
         y="1234.769"
         rx="13.511"
         ry="13.126"
         fill="#f8f7f7"
         stroke="#aa9f98"
         id="rect8" />
    </g>
    <g
       transform="matrix(.97148 0 0 1 1658.914 -2512.91)"
       stroke-width="1.015"
       stroke="#2b73cc"
       id="g16">
      <rect
         style="marker:none"
         width="49.409"
         height="26"
         x="-1242.732"
         y="1234.681"
         rx="13.556"
         ry="13.17"
         fill="#3081e3"
         id="rect12" />
      <rect
         ry="13.126"
         rx="13.511"
         y="1234.769"
         x="-1220.086"
         height="26"
         width="26.763"
         style="marker:none"
         fill="#f8f7f7"
         stroke-linecap="round"
         stroke-linejoin="round"
         id="rect14" />
    </g>
  </g>
</svg>
