<svg xmlns="http://www.w3.org/2000/svg" xmlns:svg="http://www.w3.org/2000/svg" xmlns:xlink="http://www.w3.org/1999/xlink" id="svg11252" width="27" height="76" version="1.1"><metadata id="metadata19"/><defs id="defs11254"><radialGradient id="radialGradient68155-2-3" cx="49" cy="488" r="38" fx="49" fy="488" gradientTransform="matrix(1,0,0,0.3486842,24.5,341.84211)" gradientUnits="userSpaceOnUse" xlink:href="#linearGradient39563-4-2"/><linearGradient id="linearGradient39563-4-2"><stop style="stop-color:#fff;stop-opacity:1" id="stop39565-1-4" offset="0"/><stop style="stop-color:#fff;stop-opacity:0" id="stop39567-7-9" offset="1"/></linearGradient><radialGradient id="radialGradient68157-0-8" cx="50.5" cy="487.5" r="10.5" fx="50.5" fy="487.5" gradientTransform="matrix(1.2857143,0,0,1.2857143,8.571428,-114.78571)" gradientUnits="userSpaceOnUse" xlink:href="#linearGradient39573-6-1"/><linearGradient id="linearGradient39573-6-1"><stop style="stop-color:#fff;stop-opacity:1" id="stop39575-5-6" offset="0"/><stop style="stop-color:#fff;stop-opacity:0" id="stop39577-1-2" offset="1"/></linearGradient></defs><g id="layer1" transform="rotate(90,465.93109,104.43109)"><g id="g99967" transform="translate(326,44.862171)" style="display:inline"><rect style="color:#000;display:inline;overflow:visible;visibility:visible;opacity:.49375;fill:url(#radialGradient68155-2-3);fill-opacity:1;stroke:none;stroke-width:1;marker:none;enable-background:accumulate" id="rect99969" width="76" height="2" x="35.5" y="511" rx="0" ry="0"/><path style="color:#000;display:inline;overflow:visible;visibility:visible;opacity:.43125;fill:url(#radialGradient68157-0-8);fill-opacity:1;fill-rule:nonzero;stroke:none;stroke-width:1.28571;marker:none;enable-background:accumulate" id="path99971" d="m 87,512.00001 c 0,7.45584 -6.044155,13.5 -13.5,13.5 -7.455844,0 -13.5,-6.04416 -13.5,-13.5 0,-7.45585 6.044156,-13.5 13.5,-13.5 7.455845,0 13.5,6.04415 13.5,13.5 z"/><path id="path99973" d="m 78.076923,512.00001 c 0,2.52776 -2.049159,4.57692 -4.576923,4.57692 -2.527766,0 -4.576923,-2.04916 -4.576923,-4.57692 0,-2.52777 2.049157,-4.57692 4.576923,-4.57692 2.527765,0 4.576923,2.04915 4.576923,4.57692 z" style="color:#000;display:inline;overflow:visible;visibility:visible;fill:#fff;fill-opacity:1;fill-rule:nonzero;stroke:none;stroke-width:.435897;marker:none;enable-background:accumulate"/></g></g></svg>